<svg width="260" height="80" viewBox="0 0 260 80" fill="none" xmlns="http://www.w3.org/2000/svg">
<circle cx="20.8333" cy="40" r="18.8333" stroke="#37383D" stroke-width="4"/>
<circle cx="59.1667" cy="40" r="18.8333" stroke="#37383D" stroke-width="4"/>
<circle cx="40" cy="20.8333" r="18.8333" stroke="#37383D" stroke-width="4"/>
<circle cx="40" cy="59.1666" r="18.8333" stroke="#37383D" stroke-width="4"/>
<path d="M112.88 39.72C114.373 39.9867 115.64 40.7733 116.68 42.08C117.72 43.3867 118.24 44.8667 118.24 46.52C118.24 47.9333 117.867 49.2133 117.12 50.36C116.4 51.48 115.347 52.3733 113.96 53.04C112.573 53.68 110.96 54 109.12 54H98V26.2H108.6C110.493 26.2 112.12 26.52 113.48 27.16C114.84 27.8 115.867 28.6667 116.56 29.76C117.253 30.8267 117.6 32.0267 117.6 33.36C117.6 34.96 117.173 36.2933 116.32 37.36C115.467 38.4267 114.32 39.2133 112.88 39.72ZM102.56 37.88H108.2C109.693 37.88 110.853 37.5467 111.68 36.88C112.533 36.1867 112.96 35.2 112.96 33.92C112.96 32.6667 112.533 31.6933 111.68 31C110.853 30.28 109.693 29.92 108.2 29.92H102.56V37.88ZM108.72 50.28C110.267 50.28 111.48 49.9067 112.36 49.16C113.24 48.4133 113.68 47.3733 113.68 46.04C113.68 44.68 113.213 43.6 112.28 42.8C111.347 42 110.107 41.6 108.56 41.6H102.56V50.28H108.72ZM139.955 48.32H128.315L126.315 54H121.555L131.515 26.16H136.795L146.755 54H141.955L139.955 48.32ZM138.675 44.6L134.155 31.68L129.595 44.6H138.675ZM173.926 54H169.366L155.646 33.24V54H151.086V26.16H155.646L169.366 46.88V26.16H173.926V54ZM195.234 54L184.474 41.56V54H179.914V26.2H184.474V38.88L195.274 26.2H200.994L188.914 40.12L201.194 54H195.234ZM209.787 26.2V54H205.227V26.2H209.787ZM224.933 54.28C223.067 54.28 221.387 53.96 219.893 53.32C218.4 52.6533 217.227 51.72 216.373 50.52C215.52 49.32 215.093 47.92 215.093 46.32H219.973C220.08 47.52 220.547 48.5067 221.373 49.28C222.227 50.0533 223.413 50.44 224.933 50.44C226.507 50.44 227.733 50.0667 228.613 49.32C229.493 48.5467 229.933 47.56 229.933 46.36C229.933 45.4267 229.653 44.6667 229.093 44.08C228.56 43.4933 227.88 43.04 227.053 42.72C226.253 42.4 225.133 42.0533 223.693 41.68C221.88 41.2 220.4 40.72 219.253 40.24C218.133 39.7333 217.173 38.96 216.373 37.92C215.573 36.88 215.173 35.4933 215.173 33.76C215.173 32.16 215.573 30.76 216.373 29.56C217.173 28.36 218.293 27.44 219.733 26.8C221.173 26.16 222.84 25.84 224.733 25.84C227.427 25.84 229.627 26.52 231.333 27.88C233.067 29.2133 234.027 31.0533 234.213 33.4H229.173C229.093 32.3867 228.613 31.52 227.733 30.8C226.853 30.08 225.693 29.72 224.253 29.72C222.947 29.72 221.88 30.0533 221.053 30.72C220.227 31.3867 219.813 32.3467 219.813 33.6C219.813 34.4533 220.067 35.16 220.573 35.72C221.107 36.2533 221.773 36.68 222.573 37C223.373 37.32 224.467 37.6667 225.853 38.04C227.693 38.5467 229.187 39.0533 230.333 39.56C231.507 40.0667 232.493 40.8533 233.293 41.92C234.12 42.96 234.533 44.36 234.533 46.12C234.533 47.5333 234.147 48.8667 233.373 50.12C232.627 51.3733 231.52 52.3867 230.053 53.16C228.613 53.9067 226.907 54.28 224.933 54.28ZM257.874 26.2V29.92H250.474V54H245.914V29.92H238.474V26.2H257.874Z" fill="#37383D"/>
</svg>
